name analog
datacolumns 19
datarows 23
range 0.209 0.22
endheader
time	ground_force_vx	ground_force_vy	ground_force_vz	ground_force_px	ground_force_py	ground_force_pz	l_ground_force_vx	l_ground_force_vy	l_ground_force_vz	l_ground_force_px	l_ground_force_py	l_ground_force_pz	ground_torque_x	ground_torque_y	ground_torque_z	l_ground_torque_x	l_ground_torque_y	l_ground_torque_z
0.209	-0.0	-0.0	-0.0	-9.543545722961426	27.234281539916992	-164.41700744628906	10.51520824432373	-6.759576320648193	-341.8116149902344	-0.0	-0.0	-0.0	-0.0	-0.0	-0.0	103170.8203125	8959.763671875	2008.4163818359373
0.2095	-0.0	-0.0	-0.0	-8.786170959472656	26.06745147705078	-158.74172973632812	10.723322868347168	-6.005874633789063	-347.2186889648437	-0.0	-0.0	-0.0	-0.0	-0.0	-0.0	104488.4453125	9055.1474609375	2140.48291015625
0.21	-0.0	-0.0	-0.0	-8.253111839294434	24.46743392944336	-153.95938110351562	11.44369125366211	-5.344599723815918	-352.813232421875	-0.0	-0.0	-0.0	-0.0	-0.0	-0.0	106168.796875	9364.7255859375	2305.3623046875
0.2105	-0.0	-0.0	-0.0	-7.667292594909668	23.359376907348636	-149.42369079589844	11.489252090454102	-5.206178665161133	-359.4563293457031	-0.0	-0.0	-0.0	-0.0	-0.0	-0.0	108056.9453125	9334.517578125	2321.4501953125
0.211	-0.0	-0.0	-0.0	-6.963541030883789	22.101781845092773	-143.23980712890625	11.75546169281006	-5.5213823318481445	-362.9481506347656	-0.0	-0.0	-0.0	-0.0	-0.0	-0.0	109757.71875	9675.8583984375	2393.62646484375
0.2115	-0.0	-0.0	-0.0	-6.12039041519165	20.421676635742188	-138.12548828125	12.190958976745604	-5.882833957672119	-371.6665649414063	-0.0	-0.0	-0.0	-0.0	-0.0	-0.0	111724.4609375	9783.4296875	2336.256103515625
0.212	-0.0	-0.0	-0.0	-5.631587982177734	19.390106201171875	-131.75852966308594	12.150543212890623	-5.601371765136719	-376.7234191894531	-0.0	-0.0	-0.0	-0.0	-0.0	-0.0	113300.8984375	9956.9150390625	2394.699951171875
0.2125	-0.0	-0.0	-0.0	-4.8574934005737305	17.748884201049805	-128.00999450683594	11.89322280883789	-6.48420524597168	-383.3567504882813	-0.0	-0.0	-0.0	-0.0	-0.0	-0.0	114938.78125	10207.0244140625	2203.94921875
0.213	-0.0	-0.0	-0.0	-4.066858291625977	16.676713943481445	-120.13046264648438	11.44369125366211	-6.840280532836914	-388.6180114746094	-0.0	-0.0	-0.0	-0.0	-0.0	-0.0	116806.015625	10592.7109375	2080.8017578125
0.2135	-0.0	-0.0	-0.0	-3.0429446697235107	15.155427932739258	-111.42181396484376	10.95741367340088	-7.464807033538818	-396.13177490234375	-0.0	-0.0	-0.0	-0.0	-0.0	-0.0	118530.265625	11203.3935546875	1813.220947265625
0.214	-0.0	-0.0	-0.0	-2.151289701461792	13.445053100585938	-106.32067108154295	10.063555717468262	-7.857232570648193	-400.7723388671875	-0.0	-0.0	-0.0	-0.0	-0.0	-0.0	119975.6796875	11624.8525390625	1608.16064453125
0.2145	-0.0	-0.0	-0.0	-1.1062853336334229	12.078936576843262	-96.79931640625	9.137210845947266	-9.150099754333496	-406.5801086425781	-0.0	-0.0	-0.0	-0.0	-0.0	-0.0	121276.4296875	12070.76953125	1174.1295166015625
0.215	-0.0	-0.0	-0.0	-0.2639381885528564	10.552727699279783	-89.8916015625	7.860133171081543	-9.846030235290527	-409.693115234375	-0.0	-0.0	-0.0	-0.0	-0.0	-0.0	122539.8125	12552.4697265625	719.9638671875
0.2155	-0.0	-0.0	-0.0	0.5275862216949463	9.45165729522705	-83.380859375	6.29463005065918	-10.103285789489746	-414.3976745605469	-0.0	-0.0	-0.0	-0.0	-0.0	-0.0	123539.1328125	13248.6982421875	215.97206115722656
0.216	-0.0	-0.0	-0.0	1.1091848611831665	8.11878776550293	-75.04288482666016	5.060475826263428	-10.817434310913086	-417.4029846191406	-0.0	-0.0	-0.0	-0.0	-0.0	-0.0	124771.78125	13740.265625	-160.31402587890625
0.2165	-0.0	-0.0	-0.0	2.0134153366088867	6.5490264892578125	-66.4304428100586	3.594844341278076	-11.351385116577148	-421.5762939453125	-0.0	-0.0	-0.0	-0.0	-0.0	-0.0	125825.8359375	14380.83984375	-609.1273803710938
0.217	-0.0	-0.0	-0.0	2.3917016983032227	5.262935638427734	-58.77924728393555	2.6740455627441406	-11.486041069030762	-424.3854675292969	-0.0	-0.0	-0.0	-0.0	-0.0	-0.0	126991.9765625	15012.0498046875	-902.2237548828124
0.2175	-0.0	-0.0	-0.0	2.8503403663635254	3.574000120162964	-52.641212463378906	1.605574607849121	-11.56139850616455	-428.505859375	-0.0	-0.0	-0.0	-0.0	-0.0	-0.0	128451.28125	15411.0986328125	-1260.3143310546875
0.218	-0.0	-0.0	-0.0	3.436877489089966	2.2841796875	-46.30256652832031	0.807475745677948	-11.49537754058838	-434.1432495117188	-0.0	-0.0	-0.0	-0.0	-0.0	-0.0	129875.8984375	16268.630859375	-1512.1756591796875
0.2185	-0.0	-0.0	-0.0	3.080098390579224	1.5198843479156494	-39.94632339477539	0.2241091877222061	-11.216854095458984	-438.6998291015625	-0.0	-0.0	-0.0	-0.0	-0.0	-0.0	131712.21875	16583.50390625	-1751.3082275390625
0.219	-0.0	-0.0	-0.0	3.883070468902588	0.0939527228474617	-34.77866744995117	-0.1354754269123077	-10.998448371887209	-446.0696411132813	-0.0	-0.0	-0.0	-0.0	-0.0	-0.0	133748.34375	16849.93359375	-2066.95751953125
0.2195	-0.0	-0.0	-0.0	4.2572455406188965	-0.6659943461418152	-27.754148483276367	-0.3129691779613495	-10.561853408813477	-451.6373901367188	-0.0	-0.0	-0.0	-0.0	-0.0	-0.0	135642.546875	17408.529296875	-2077.728515625
0.22	-0.0	-0.0	-0.0	4.014472961425781	-1.200713872909546	-21.564157485961918	-0.6729627847671509	-10.151927947998049	-457.3686218261719	-0.0	-0.0	-0.0	-0.0	-0.0	-0.0	137961.796875	17971.923828125	-2212.177490234375
